<svg width="39" height="59" viewBox="0 0 39 59" fill="none" xmlns="http://www.w3.org/2000/svg">
<path fill-rule="evenodd" clip-rule="evenodd" d="M28.7668 35.7148L28.3034 37.437C25.5899 37.9285 23.0691 38.6504 20.7509 39.606C18.1236 40.6854 15.747 42.0569 13.628 43.7241C13.0544 44.1709 12.4981 44.6487 11.9658 45.1437C11.4815 45.5871 11.0145 46.0477 10.5646 46.529C10.3585 46.7456 10.1559 46.9656 9.96008 47.1924H9.95664C7.16453 50.3514 4.9769 54.2186 3.40734 58.7903H1.73822C3.77826 52.6991 6.80049 47.8009 10.7947 44.0678C11.0282 43.8513 11.2617 43.6346 11.5022 43.425C12.0448 42.9506 12.608 42.49 13.1815 42.0569C15.5856 40.2419 18.2816 38.781 21.2661 37.6708C23.5911 36.8079 26.0913 36.1549 28.7668 35.7148Z" fill="white"/>
<path fill-rule="evenodd" clip-rule="evenodd" d="M12.2611 38.592L11.2342 42.4179L7.74838 29.3935L0.0142217 0.498427C-0.0544534 0.247495 0.137801 0 0.395377 0H1.61803C1.7966 0 1.9546 0.12031 1.99927 0.292182L8.76492 25.5676L12.2543 38.5851L12.2611 38.592Z" fill="white"/>
<path fill-rule="evenodd" clip-rule="evenodd" d="M37.8129 0C38.0742 0 38.2631 0.247495 38.1942 0.498427L30.4599 29.3935L29.4333 33.2159L28.9902 34.8728L28.7669 35.7149L28.3034 37.437L28.073 38.2896L22.681 58.4432C22.633 58.615 22.4784 58.7388 22.2998 58.7388H15.6269L15.6165 58.7903L15.6062 58.7388L12.2028 46.0134C12.7523 45.4875 13.3087 44.9994 13.8582 44.5628L16.6434 54.9645L20.4934 40.5823L20.7544 39.6061L21.2695 37.6708L21.5202 36.7427L25.9501 20.1949L26.9776 16.3725L31.2773 0.295619C31.325 0.123748 31.4794 0 31.6586 0H37.8094H37.8129Z" fill="white"/>
<path fill-rule="evenodd" clip-rule="evenodd" d="M26.3562 14.0694L25.3323 17.8953L21.5649 3.82586L12.2577 38.592L11.2309 42.4179L10.7913 44.0644L9.94986 47.1925L6.92762 58.4913C6.87952 58.6631 6.72495 58.7869 6.54638 58.7869H0.395449C0.13443 58.7869 -0.0544679 58.5395 0.0142073 58.2885L7.74837 29.3935L8.77188 25.5711L15.5238 0.343743C15.5719 0.171871 15.7264 0.0515614 15.905 0.0515614H22.578L22.5883 0L22.5986 0.0515614L26.3491 14.0694H26.3562Z" fill="white"/>
<path fill-rule="evenodd" clip-rule="evenodd" d="M30.4598 29.3936L29.4332 33.216L25.9474 20.195L26.974 16.3726L30.4598 29.3936Z" fill="white"/>
<path fill-rule="evenodd" clip-rule="evenodd" d="M37.8129 58.7872H36.5903C36.4111 58.7872 36.254 58.6669 36.209 58.495L30.4802 37.097L30.0582 35.5226L31.0813 31.6968L32.0435 35.2889L32.4654 36.8735L38.1977 58.2887C38.2657 58.5397 38.0742 58.7872 37.8164 58.7872H37.8129Z" fill="white"/>
</svg>
