<svg width="215" height="31" viewBox="0 0 215 31" fill="none" xmlns="http://www.w3.org/2000/svg">
<path d="M26.9265 0L13.7844 29.8051H13.142L0 0H1.28027L13.4406 27.7198L25.6462 0H26.9265Z" fill="black"/>
<path d="M30.532 29.0018H42.0319V29.8051H29.6363V8.94197H41.7333V9.74548H30.532V18.8364H38.7474V19.6714H30.532V29.0018Z" fill="black"/>
<path d="M59.657 29.8051H58.5804L51.8894 21.5177H46.3341V29.8051H45.4655V8.94197H52.1293C54.1378 8.94197 55.7936 9.52432 57.0874 10.6844C58.3813 11.849 59.0282 13.3611 59.0282 15.2298C59.0282 16.9586 58.4627 18.394 57.3272 19.536C56.1917 20.678 54.726 21.3281 52.9345 21.486L59.657 29.8004V29.8051ZM46.3341 9.71836V20.7458H51.8307C53.7805 20.7458 55.3277 20.2447 56.4586 19.2427C57.5941 18.2406 58.1596 16.9044 58.1596 15.2344C58.1596 13.5642 57.5941 12.2281 56.4586 11.2261C55.3231 10.224 53.7805 9.72288 51.8307 9.72288H46.3341V9.71836Z" fill="black"/>
<path d="M68.7683 8.73424C70.4195 8.73424 71.8535 9.14956 73.0705 9.9846C74.2874 10.8196 75.1425 11.8624 75.64 13.1128L74.9253 13.4422C74.4458 12.3273 73.6767 11.3975 72.6091 10.6392C71.546 9.88527 70.2431 9.50611 68.7094 9.50611C67.0989 9.50611 65.7824 9.90787 64.7645 10.7114C63.7466 11.5148 63.24 12.5756 63.24 13.8846C63.24 15.0357 63.5612 15.9069 64.2127 16.4936C64.8595 17.0804 65.8187 17.6041 67.0943 18.06L70.2883 19.1613C71.1252 19.4412 71.8083 19.6985 72.333 19.9377C72.8624 20.1769 73.4279 20.511 74.034 20.9352C74.6403 21.3641 75.0927 21.8877 75.3912 22.5151C75.6898 23.1426 75.8391 23.8598 75.8391 24.677C75.8391 26.2071 75.1605 27.4798 73.8079 28.4918C72.4553 29.5072 70.8222 30.0126 68.9085 30.0126C67.1759 30.0126 65.6106 29.5524 64.2172 28.6274C62.8238 27.7012 61.8963 26.5375 61.4395 25.1245L62.2176 24.8266C62.6971 26.1573 63.5205 27.2271 64.6967 28.0316C65.8729 28.8349 67.2754 29.2359 68.9085 29.2359C70.5416 29.2359 72.0164 28.821 73.2107 27.9864C74.4051 27.1506 75.0022 26.0495 75.0022 24.677C75.0022 23.9827 74.871 23.3683 74.6131 22.8311C74.3553 22.294 73.9663 21.8471 73.446 21.4904C72.9257 21.1339 72.4416 20.8496 71.9803 20.6418C71.5233 20.4342 70.9533 20.2086 70.2793 19.9693L66.9632 18.8047C65.4476 18.3082 64.3077 17.6808 63.5432 16.9269C62.774 16.1731 62.394 15.1575 62.394 13.8846C62.394 12.4356 63.0048 11.2124 64.2307 10.2193C65.4567 9.2263 66.9632 8.72972 68.7547 8.72972L68.7683 8.73424Z" fill="black"/>
<path d="M92.7857 8.94197H93.6498V29.8051H92.7857V20.0913H80.0012V29.8051H79.1325V8.94197H80.0012V19.2832H92.7857V8.94197Z" fill="black"/>
<path d="M98.8795 8.94197V29.8051H98.0426V8.94197H98.8795Z" fill="black"/>
<path d="M119.101 8.94197V29.8051H118.174L104.136 9.98473V29.8051H103.268V8.94197H104.195L118.233 28.821V8.94197H119.101Z" fill="black"/>
<path d="M139.889 29.8051L136.542 22.2038H126.145L122.829 29.8051H121.934L131.135 8.94197H131.582L140.785 29.8051H139.889ZM126.538 21.4003H136.188L131.348 10.3999L126.538 21.4003Z" fill="black"/>
<path d="M181.047 29.8051L176.271 18.9493H161.418L156.682 29.8051H155.402L168.543 5.72205e-06H169.186L182.328 29.8051H181.047ZM161.975 17.7981H175.759L168.847 2.08542L161.975 17.7981Z" fill="black"/>
<path d="M199.677 29.8051H198.6L191.91 21.5177H186.354V29.8051H185.486V8.94197H192.149C194.158 8.94197 195.813 9.52432 197.107 10.6844C198.402 11.8445 199.048 13.3611 199.048 15.2298C199.048 16.9586 198.483 18.394 197.347 19.536C196.212 20.678 194.746 21.3281 192.954 21.486L199.677 29.8004V29.8051ZM186.354 9.71836V20.7458H191.851C193.801 20.7458 195.348 20.2447 196.478 19.2427C197.614 18.2406 198.18 16.9044 198.18 15.2344C198.18 13.5642 197.614 12.2281 196.478 11.2261C195.344 10.224 193.801 9.72288 191.851 9.72288H186.354V9.71836Z" fill="black"/>
<path d="M215 8.94197V9.71836H208.516V29.8051H207.712V9.71836H201.229V8.94197H215Z" fill="black"/>
</svg>
