<svg width="26" height="26" viewBox="0 0 26 26" fill="none" xmlns="http://www.w3.org/2000/svg">
<path fill-rule="evenodd" clip-rule="evenodd" d="M19.4761 20.8539L19.4769 20.8521L19.4952 20.8062L22.6551 4.87489V4.82314C22.6551 4.4262 22.5084 4.07968 22.1893 3.87182C21.9099 3.68988 21.5888 3.67693 21.3636 3.69402C21.1255 3.71209 20.9009 3.77154 20.7454 3.82102C20.6654 3.84648 20.5985 3.87101 20.5506 3.88956C20.5266 3.89887 20.5071 3.90678 20.493 3.91266L20.479 3.91852L2.86097 10.8298L2.85612 10.8316C2.84661 10.835 2.83402 10.8397 2.81883 10.8456C2.78853 10.8574 2.74728 10.8743 2.69883 10.8963C2.6037 10.9394 2.47226 11.0059 2.33897 11.0972C2.11257 11.2522 1.68148 11.6193 1.75427 12.2012C1.81457 12.6831 2.14681 12.9893 2.3708 13.1477C2.49087 13.2327 2.60574 13.294 2.68985 13.334C2.73247 13.3543 2.76868 13.3698 2.79564 13.3808C2.80916 13.3863 2.82046 13.3907 2.82921 13.394L2.8404 13.3982L2.84756 13.4009L5.92996 14.4386C5.91955 14.632 5.93873 14.8292 5.99002 15.0237L7.53403 20.8808C7.7171 21.5752 8.34536 22.059 9.06354 22.0584C9.70729 22.058 10.2782 21.6685 10.5208 21.0875L12.9314 18.51L17.0714 21.6841L17.1303 21.7097C17.5064 21.8739 17.8579 21.9259 18.1792 21.882C18.5 21.8382 18.755 21.7036 18.9465 21.5504C19.135 21.3996 19.2642 21.2294 19.3454 21.1013C19.3867 21.0362 19.4174 20.979 19.4388 20.9359C19.4495 20.9143 19.4579 20.896 19.4643 20.8818L19.4722 20.8634L19.475 20.8566L19.4761 20.8539ZM7.51834 14.6208C7.48325 14.4877 7.53834 14.3472 7.65455 14.2734L18.1096 7.63395C18.1096 7.63395 18.7246 7.26062 18.7026 7.63395C18.7026 7.63395 18.8123 7.69988 18.4828 8.00728C18.1703 8.29924 11.0312 15.1917 10.3088 15.8892C10.2671 15.9294 10.2423 15.9756 10.2276 16.0317L9.06235 20.4778L7.51834 14.6208Z" fill="#888888"/>
</svg>
