<svg width="26" height="26" viewBox="0 0 26 26" fill="none" xmlns="http://www.w3.org/2000/svg">
<path fill-rule="evenodd" clip-rule="evenodd" d="M7.52184 5.15253C11.0367 4.87754 14.5677 4.87754 18.0826 5.15253L20.4437 5.33725C21.7588 5.44014 22.8347 6.42579 23.052 7.7269C23.596 10.9824 23.596 14.3055 23.052 17.561C22.8347 18.8621 21.7588 19.8478 20.4437 19.9507L18.0826 20.1354C14.5677 20.4104 11.0367 20.4104 7.52184 20.1354L5.16076 19.9507C3.84563 19.8478 2.76976 18.8621 2.55236 17.561C2.00842 14.3055 2.00842 10.9824 2.55236 7.7269C2.76976 6.42579 3.84563 5.44014 5.16076 5.33725L7.52184 5.15253ZM10.6947 15.2468V10.0411C10.6947 9.7954 10.9628 9.64362 11.1735 9.77004L15.5116 12.3729C15.7162 12.4957 15.7162 12.7922 15.5116 12.915L11.1735 15.5179C10.9628 15.6443 10.6947 15.4925 10.6947 15.2468Z" fill="#888888"/>
</svg>
