<svg width="64" height="97" viewBox="0 0 64 97" fill="none" xmlns="http://www.w3.org/2000/svg">
<path fill-rule="evenodd" clip-rule="evenodd" d="M47.8793 58.9268L47.1158 61.7682C42.6454 62.5791 38.4926 63.7702 34.6736 65.3469C30.3453 67.1278 26.4299 69.3906 22.9391 72.1413C21.9942 72.8786 21.0776 73.6669 20.2007 74.4837C19.4029 75.2152 18.6335 75.9752 17.8923 76.7692C17.5528 77.1266 17.219 77.4895 16.8964 77.8638H16.8907C12.2909 83.0759 8.68695 89.4564 6.10121 96.9994H3.35144C6.71227 86.9495 11.6912 78.8677 18.2714 72.7085C18.656 72.3512 19.0408 71.9938 19.4369 71.6479C20.3308 70.8652 21.2588 70.1053 22.2036 69.3906C26.1641 66.3961 30.6056 63.9857 35.5223 62.1539C39.3527 60.7302 43.4716 59.6528 47.8793 58.9268Z" fill="#C7C7C7"/>
<path fill-rule="evenodd" clip-rule="evenodd" d="M20.6871 63.6737L18.9954 69.9861L13.2527 48.4969L0.511165 0.822365C0.398027 0.408348 0.714754 0 1.13909 0H3.15333C3.44751 0 3.70781 0.198503 3.7814 0.482077L14.9274 42.1846L20.6759 63.6623L20.6871 63.6737Z" fill="#C7C7C7"/>
<path fill-rule="evenodd" clip-rule="evenodd" d="M62.782 0C63.2124 0 63.5237 0.408348 63.4102 0.822365L50.6684 48.4969L48.9772 54.8036L48.2471 57.5373L47.8792 58.9267L47.1158 61.7681L46.7362 63.1747L37.8532 96.4266C37.774 96.7101 37.5194 96.9143 37.2252 96.9143H26.232L26.2149 96.9994L26.1979 96.9143L20.5911 75.9185C21.4963 75.0507 22.4129 74.2455 23.3181 73.5251L27.9066 90.687L34.2492 66.9576L34.6792 65.3468L35.5279 62.1538L35.9409 60.6225L43.2388 33.32L44.9315 27.0133L52.015 0.487748C52.0935 0.204174 52.348 0 52.6432 0H62.7762H62.782Z" fill="#C7C7C7"/>
<path fill-rule="evenodd" clip-rule="evenodd" d="M43.9078 23.2134L42.2211 29.5258L36.0145 6.31236L20.6816 63.6737L18.9899 69.9861L18.2657 72.7027L16.8795 77.8638L11.9006 96.5059C11.8213 96.7895 11.5667 96.9937 11.2725 96.9937H1.13927C0.709258 96.9937 0.398061 96.5855 0.511198 96.1714L13.2527 48.4969L14.9389 42.1902L26.0622 0.567148C26.1414 0.283574 26.396 0.0850723 26.6902 0.0850723H37.6835L37.7005 0L37.7175 0.0850723L43.8962 23.2134H43.9078Z" fill="#C7C7C7"/>
<path fill-rule="evenodd" clip-rule="evenodd" d="M50.6684 48.4953L48.9771 54.802L43.2344 33.3184L44.9257 27.0117L50.6684 48.4953Z" fill="#C7C7C7"/>
<path fill-rule="evenodd" clip-rule="evenodd" d="M62.782 96.9939H60.768C60.4727 96.9939 60.2139 96.7954 60.1397 96.5118L50.7019 61.2067L50.0068 58.6092L51.6922 52.2969L53.2773 58.2236L53.9724 60.8381L63.4161 96.1714C63.528 96.5855 63.2125 96.9939 62.7879 96.9939H62.782Z" fill="#C7C7C7"/>
</svg>
