<svg width="26" height="26" viewBox="0 0 26 26" fill="none" xmlns="http://www.w3.org/2000/svg">
<path d="M15.4098 3.0293C14.1173 3.0293 12.8777 3.54275 11.9637 4.4567C11.0498 5.37066 10.5363 6.61025 10.5363 7.90277V10.6161H7.92837C7.79743 10.6161 7.69128 10.7223 7.69128 10.8532V14.4359C7.69128 14.5668 7.79743 14.6729 7.92837 14.6729H10.5363V22.0227C10.5363 22.1536 10.6425 22.2598 10.7734 22.2598H14.3561C14.487 22.2598 14.5932 22.1536 14.5932 22.0227V14.6729H17.2242C17.333 14.6729 17.4279 14.5989 17.4543 14.4934L18.3499 10.9107C18.3873 10.7611 18.2742 10.6161 18.1199 10.6161H14.5932V7.90277C14.5932 7.68619 14.6792 7.47847 14.8324 7.32532C14.9855 7.17217 15.1932 7.08614 15.4098 7.08614H18.1495C18.2804 7.08614 18.3866 6.97999 18.3866 6.84905V3.26638C18.3866 3.13544 18.2804 3.0293 18.1495 3.0293H15.4098Z" fill="#888888"/>
</svg>
