<svg width="27" height="26" viewBox="0 0 27 26" fill="none" xmlns="http://www.w3.org/2000/svg">
<path d="M13.5128 9.22001C11.6215 9.22001 10.0882 10.7533 10.0882 12.6446C10.0882 14.536 11.6215 16.0692 13.5128 16.0692C15.4042 16.0692 16.9374 14.536 16.9374 12.6446C16.9374 10.7533 15.4042 9.22001 13.5128 9.22001Z" fill="#888888"/>
<path fill-rule="evenodd" clip-rule="evenodd" d="M8.00135 3.24694C11.6347 2.84086 15.3909 2.84086 19.0243 3.24694C21.0247 3.47052 22.6382 5.04665 22.8729 7.05405C23.3074 10.7684 23.3074 14.5208 22.8729 18.2352C22.6382 20.2426 21.0247 21.8187 19.0243 22.0423C15.3909 22.4484 11.6347 22.4484 8.00136 22.0423C6.00097 21.8187 4.38751 20.2426 4.15273 18.2352C3.7183 14.5208 3.7183 10.7684 4.15273 7.05405C4.38751 5.04665 6.00097 3.47052 8.00135 3.24694ZM18.7814 6.32227C18.1995 6.32227 17.7277 6.79404 17.7277 7.376C17.7277 7.95795 18.1995 8.42972 18.7814 8.42972C19.3634 8.42972 19.8352 7.95795 19.8352 7.376C19.8352 6.79404 19.3634 6.32227 18.7814 6.32227ZM8.50763 12.6446C8.50763 9.88033 10.7485 7.63943 13.5128 7.63943C16.2771 7.63943 18.518 9.88033 18.518 12.6446C18.518 15.4089 16.2771 17.6498 13.5128 17.6498C10.7485 17.6498 8.50763 15.4089 8.50763 12.6446Z" fill="#888888"/>
</svg>
