<svg width="26" height="26" viewBox="0 0 26 26" fill="none" xmlns="http://www.w3.org/2000/svg">
<path d="M23.2374 19.3684H20.8334C19.9238 19.3684 19.6503 18.6318 18.019 17.0006C16.5953 15.628 15.9939 15.4566 15.633 15.4566C15.1354 15.4566 14.9986 15.5934 14.9986 16.2805V18.4423C14.9986 19.0273 14.8091 19.37 13.2817 19.37C11.7993 19.2704 10.3617 18.82 9.08746 18.056C7.81321 17.292 6.7387 16.2361 5.95244 14.9755C4.08581 12.6521 2.787 9.9253 2.1593 7.01185C2.1593 6.65099 2.29607 6.32473 2.98318 6.32473H5.38561C6.00352 6.32473 6.22597 6.59991 6.46819 7.2343C7.6348 10.6682 9.6253 13.654 10.4327 13.654C10.7425 13.654 10.8776 13.5172 10.8776 12.7444V9.20831C10.7754 7.59515 9.9186 7.45839 9.9186 6.87508C9.9296 6.72123 10.0001 6.57772 10.1152 6.47497C10.2302 6.37223 10.3807 6.31834 10.5349 6.32473H14.3115C14.8273 6.32473 14.9986 6.58178 14.9986 7.19969V11.9716C14.9986 12.4873 15.2211 12.6587 15.376 12.6587C15.6858 12.6587 15.9247 12.4873 16.4915 11.9205C17.709 10.4358 18.7037 8.78167 19.4443 7.0102C19.52 6.79741 19.6632 6.61524 19.8522 6.49147C20.0411 6.36771 20.2653 6.30915 20.4906 6.32473H22.8947C23.6148 6.32473 23.768 6.68559 23.6148 7.19969C22.7406 9.15794 21.659 11.0168 20.3885 12.7444C20.1298 13.1399 20.0259 13.3458 20.3885 13.8089C20.6274 14.1697 21.4694 14.8733 22.0362 15.5423C22.8599 16.3639 23.544 17.3146 24.0613 18.3567C24.2673 19.0257 23.9229 19.3684 23.2374 19.3684Z" fill="#888888"/>
</svg>
