<svg width="26" height="26" viewBox="0 0 26 26" fill="none" xmlns="http://www.w3.org/2000/svg">
<path d="M12.9786 2.41602C15.7066 2.4161 18.2609 3.4729 20.1837 5.38672C22.1063 7.30035 23.1632 9.8474 23.1632 12.5566C23.1631 18.1435 18.5903 22.6913 12.9786 22.6914H12.9728C11.2678 22.6913 9.59303 22.2637 8.10559 21.458C8.05387 21.43 7.99552 21.4169 7.93762 21.4209L7.88098 21.4307L3.02551 22.6992C2.94154 22.7208 2.86502 22.6433 2.88782 22.5596L4.18469 17.8525C4.20664 17.7729 4.19579 17.6877 4.15442 17.6162C3.26242 16.0761 2.7935 14.3293 2.79407 12.5518V12.5508C2.79433 6.96386 7.36703 2.41602 12.9786 2.41602ZM9.13196 7.24121C8.87894 7.24121 8.49891 7.3347 8.18079 7.67773C8.1672 7.69238 8.1519 7.70853 8.13391 7.72754C7.83572 8.04269 7.14969 8.76942 7.14954 10.1436C7.14954 10.8678 7.41019 11.5637 7.67688 12.0908C7.9457 12.6221 8.23456 13.0088 8.31555 13.1172L8.32141 13.125C8.32181 13.1256 8.32323 13.1269 8.32532 13.1299C8.32787 13.1335 8.33095 13.1385 8.33508 13.1445C8.34366 13.1571 8.35472 13.1733 8.36829 13.1934C8.7072 13.6943 10.4407 16.2668 13.0948 17.3105C14.1411 17.7224 14.8274 17.9174 15.3195 18C15.8228 18.0844 16.1165 18.0499 16.3595 18.0205L16.4943 18.0049C16.8156 17.9749 17.2661 17.7824 17.6515 17.5342C18.0328 17.2886 18.4394 16.9317 18.59 16.5166L18.5909 16.5146C18.7119 16.1732 18.7733 15.8538 18.795 15.5996C18.8059 15.473 18.8076 15.3578 18.7999 15.2607C18.7936 15.1801 18.778 15.0614 18.7218 14.9668C18.6566 14.8572 18.5607 14.787 18.4825 14.7393C18.4039 14.6912 18.3083 14.6454 18.2189 14.6025C18.1725 14.5803 18.1244 14.5576 18.0734 14.5322C17.9365 14.4641 17.5337 14.2657 17.1339 14.0732C16.743 13.8851 16.3296 13.6897 16.1876 13.6367C16.0692 13.5926 15.894 13.5292 15.7111 13.5508C15.495 13.5764 15.3337 13.7064 15.212 13.8916C15.04 14.1445 14.5383 14.7297 14.3761 14.918C14.3519 14.946 14.3365 14.9584 14.3292 14.9629C14.324 14.9661 14.3226 14.9658 14.3224 14.9658C14.3165 14.9665 14.2732 14.9683 14.1583 14.9111C14.105 14.8846 14.0357 14.8548 13.965 14.8242C13.5939 14.6641 12.8741 14.353 12.0421 13.6123H12.0411C11.4627 13.0997 11.0216 12.491 10.7736 12.1094L10.5919 11.8154C10.5697 11.7771 10.5653 11.7569 10.5646 11.752C10.566 11.7485 10.5717 11.7386 10.587 11.7197C10.605 11.6976 10.6273 11.6734 10.6622 11.6387C10.7515 11.5498 10.8513 11.4286 10.9376 11.3242C10.9891 11.262 11.038 11.2033 11.0841 11.1504C11.2326 10.9798 11.2979 10.8425 11.3702 10.6924C11.3798 10.6726 11.3895 10.6525 11.3995 10.6318C11.5474 10.3289 11.467 10.0647 11.3771 9.88574C11.3767 9.88499 11.3763 9.88332 11.3751 9.88086C11.3734 9.87719 11.371 9.87234 11.3683 9.86621C11.3628 9.85394 11.3562 9.83791 11.3478 9.81836C11.3309 9.77908 11.3088 9.72732 11.2833 9.66602C11.2324 9.54352 11.1669 9.38441 11.0948 9.20898C11.0028 8.98487 10.8994 8.73307 10.8019 8.49902L10.5441 7.89551C10.4275 7.63665 10.2873 7.4582 10.1085 7.35449C9.93149 7.25187 9.75749 7.2496 9.66223 7.24707H9.66321C9.50087 7.24171 9.31289 7.24121 9.13196 7.24121Z" fill="#888888" stroke="#888888" stroke-width="0.616814" stroke-linejoin="round"/>
</svg>
