<svg width="399" height="57" viewBox="0 0 399 57" fill="none" xmlns="http://www.w3.org/2000/svg">
<path d="M49.8736 0L25.5317 55.4614H24.3418L0 0H2.37133L24.8948 51.5811L47.5022 0H49.8736Z" fill="#C7C7C7"/>
<path d="M56.5518 53.9671H77.8521V55.4618H54.8928V16.6396H77.299V18.1348H56.5518V35.0512H71.7686V36.6051H56.5518V53.9671Z" fill="#C7C7C7" stroke="#C7C7C7" stroke-width="0.359709" stroke-miterlimit="10"/>
<path d="M110.498 55.4618H108.503L96.1104 40.0406H85.8207V55.4618H84.2119V16.6396H96.5547C100.275 16.6396 103.342 17.7233 105.738 19.882C108.135 22.049 109.333 24.8627 109.333 28.3401C109.333 31.557 108.286 34.2281 106.182 36.3531C104.079 38.4781 101.364 39.6877 98.0461 39.9817L110.498 55.4532V55.4618ZM85.8207 18.0844V38.6043H96.0016C99.6131 38.6043 102.479 37.6719 104.573 35.8072C106.677 33.9425 107.724 31.4563 107.724 28.3486C107.724 25.2406 106.677 22.7546 104.573 20.8899C102.47 19.0252 99.6131 18.0928 96.0016 18.0928H85.8207V18.0844Z" fill="#C7C7C7" stroke="#C7C7C7" stroke-width="0.359709" stroke-miterlimit="10"/>
<path d="M127.374 16.2526C130.432 16.2526 133.088 17.0254 135.342 18.5792C137.596 20.1331 139.18 22.0735 140.102 24.4001L138.778 25.0132C137.89 22.9386 136.465 21.2083 134.488 19.7973C132.519 18.3944 130.105 17.6889 127.265 17.6889C124.282 17.6889 121.843 18.4364 119.958 19.9316C118.073 21.4266 117.134 23.4006 117.134 25.8364C117.134 27.9783 117.729 29.5994 118.936 30.6913C120.134 31.7831 121.91 32.7576 124.273 33.6059L130.189 35.6552C131.739 36.1761 133.004 36.655 133.976 37.0999C134.957 37.5451 136.004 38.1668 137.127 38.9562C138.25 39.7543 139.088 40.7286 139.641 41.8961C140.194 43.0637 140.47 44.3984 140.47 45.919C140.47 48.7661 139.213 51.1344 136.708 53.0174C134.203 54.9069 131.178 55.8474 127.633 55.8474C124.424 55.8474 121.525 54.991 118.944 53.2698C116.363 51.5464 114.645 49.3809 113.799 46.7516L115.24 46.1972C116.129 48.6734 117.654 50.6642 119.832 52.1611C122.011 53.6559 124.609 54.4022 127.633 54.4022C130.658 54.4022 133.39 53.63 135.602 52.077C137.814 50.5219 138.92 48.4728 138.92 45.919C138.92 44.627 138.677 43.4836 138.2 42.4841C137.722 41.4846 137.001 40.6531 136.038 39.9894C135.074 39.3259 134.178 38.7968 133.323 38.4103C132.477 38.024 131.421 37.604 130.172 37.1588L124.03 34.9918C121.223 34.0677 119.112 32.9004 117.696 31.4975C116.271 30.0949 115.567 28.205 115.567 25.8364C115.567 23.1401 116.698 20.8639 118.969 19.016C121.24 17.1682 124.03 16.2441 127.348 16.2441L127.374 16.2526Z" fill="#C7C7C7" stroke="#C7C7C7" stroke-width="0.359709" stroke-miterlimit="10"/>
<path d="M171.859 16.6396H173.46V55.4618H171.859V37.3863H148.179V55.4618H146.57V16.6396H148.179V35.8827H171.859V16.6396Z" fill="#C7C7C7" stroke="#C7C7C7" stroke-width="0.359709" stroke-miterlimit="10"/>
<path d="M183.146 16.6396V55.4618H181.596V16.6396H183.146Z" fill="#C7C7C7" stroke="#C7C7C7" stroke-width="0.359709" stroke-miterlimit="10"/>
<path d="M220.601 16.6396V55.4618H218.883L192.883 18.58V55.4618H191.274V16.6396H192.992L218.993 53.6306V16.6396H220.601Z" fill="#C7C7C7" stroke="#C7C7C7" stroke-width="0.359709" stroke-miterlimit="10"/>
<path d="M259.105 55.4618L252.905 41.3173H233.649L227.506 55.4618H225.848L242.89 16.6396H243.719L260.763 55.4618H259.105ZM234.376 39.8221H252.25L243.284 19.3526L234.376 39.8221Z" fill="#C7C7C7" stroke="#C7C7C7" stroke-width="0.359709" stroke-miterlimit="10"/>
<path d="M335.339 55.4614L326.492 35.2609H298.98L290.208 55.4614H287.837L312.178 0H313.369L337.71 55.4614H335.339ZM300.012 33.1188H325.544L312.74 3.88054L300.012 33.1188Z" fill="#C7C7C7"/>
<path d="M369.845 55.4618H367.851L355.459 40.0406H345.168V55.4618H343.56V16.6396H355.902C359.622 16.6396 362.689 17.7233 365.086 19.882C367.483 22.0406 368.68 24.8627 368.68 28.3401C368.68 31.557 367.633 34.2281 365.529 36.3531C363.427 38.4781 360.711 39.6877 357.393 39.9817L369.845 55.4532V55.4618ZM345.168 18.0844V38.6043H355.349C358.96 38.6043 361.827 37.6719 363.92 35.8072C366.025 33.9425 367.071 31.4563 367.071 28.3486C367.071 25.2406 366.025 22.7546 363.92 20.8899C361.818 19.0252 358.96 18.0928 355.349 18.0928H345.168V18.0844Z" fill="#C7C7C7" stroke="#C7C7C7" stroke-width="0.359709" stroke-miterlimit="10"/>
<path d="M398.226 16.6396V18.0844H386.217V55.4618H384.727V18.0844H372.72V16.6396H398.226Z" fill="#C7C7C7" stroke="#C7C7C7" stroke-width="0.359709" stroke-miterlimit="10"/>
</svg>
