<svg width="116" height="18" viewBox="0 0 116 18" fill="none" xmlns="http://www.w3.org/2000/svg">
<path d="M0.902435 0.46875H2.19292V2.66881H0.902435V0.46875ZM0.902435 3.83572H2.19292V13.3866H0.902435V3.83572Z" fill="#C7C7C7"/>
<path d="M4.38812 3.83489H5.61141V5.21317H5.64501C6.37403 4.13039 7.50515 3.6084 8.76204 3.6084C10.9239 3.6084 12.9266 4.95217 12.9266 8.35365V13.3858H11.6363V8.35365C11.6363 7.65696 11.5859 4.77746 8.60288 4.77746C7.27901 4.77746 5.67861 5.45689 5.67861 8.14443V13.3858H4.38812V3.83489Z" fill="#C7C7C7"/>
<path d="M16.1108 5.01357H14.1249V3.84453H16.1108V0.477539H17.4011V3.84453H19.6134V5.01357H17.4011V13.3954H16.1108V5.01357Z" fill="#C7C7C7"/>
<path d="M21.8926 9.07734C22.0518 10.9776 23.5096 12.4465 25.5123 12.4465C27.0123 12.4465 28.244 11.5902 28.8389 10.2788H30.1795C29.4171 12.3365 27.6742 13.6134 25.5123 13.6134C22.7052 13.6134 20.5517 11.4802 20.5517 8.62439C20.5517 6.26471 22.2779 3.61816 25.5123 3.61816C29.1154 3.61816 30.4227 6.62492 30.4059 9.08598H21.8926V9.07734ZM29.0148 7.91046C28.6461 5.97138 27.1715 4.78723 25.5123 4.78723C23.6858 4.78723 22.2025 6.09648 21.8926 7.91046H29.0148Z" fill="#C7C7C7"/>
<path d="M32.2327 3.83565H33.456V5.21394H33.4896C34.009 4.18076 35.0564 3.59193 36.2211 3.62644V4.9206C35.0062 4.98746 33.5229 5.79413 33.5229 7.73322V13.3865H32.2327V3.83565Z" fill="#C7C7C7"/>
<path d="M37.4779 0.46875H38.7684V2.66881H37.4779V0.46875ZM37.4779 3.83572H38.7684V13.3866H37.4779V3.83572Z" fill="#C7C7C7"/>
<path d="M50.5497 8.62439C50.5497 11.4715 48.371 13.6134 45.5723 13.6134C42.7736 13.6134 40.5952 11.4629 40.5952 8.62439C40.5952 5.78587 42.7568 3.61816 45.5723 3.61816C48.3878 3.61816 50.5497 5.78587 50.5497 8.62439ZM41.8771 8.62439C41.8771 10.7921 43.4273 12.4465 45.5723 12.4465C47.7174 12.4465 49.2676 10.7921 49.2676 8.62439C49.2676 6.45668 47.7174 4.78723 45.5723 4.78723C43.4273 4.78723 41.8771 6.4653 41.8771 8.62439Z" fill="#C7C7C7"/>
<path d="M52.3597 3.83565H53.583V5.21394H53.6166C54.136 4.18076 55.1834 3.59193 56.3481 3.62644V4.9206C55.1332 4.98746 53.65 5.79413 53.65 7.73322V13.3865H52.3597V3.83565Z" fill="#C7C7C7"/>
<path d="M71.3974 13.3874H70.1825V11.6403H70.1489C69.2941 12.8999 67.9702 13.6139 66.42 13.6139C63.5795 13.6139 61.3339 11.4807 61.3339 8.54943C61.3339 6.31485 63.0096 3.61005 66.3866 3.61005C67.1742 3.61005 68.9256 3.73731 70.0819 5.49305H70.1153V0.460938H71.4058V13.3788L71.3974 13.3874ZM62.6159 8.65943C62.6159 10.8595 64.3755 12.447 66.4116 12.447C68.4479 12.447 70.1741 10.8099 70.1741 8.67452C70.1741 6.54132 68.5735 4.77912 66.3782 4.77912C64.3085 4.77912 62.6159 6.43347 62.6159 8.6508V8.65943Z" fill="#C7C7C7"/>
<path d="M74.5641 9.07734C74.7234 10.9776 76.1815 12.4465 78.1844 12.4465C79.6834 12.4465 80.9153 11.5902 81.5119 10.2788H82.8514C82.089 12.3365 80.3467 13.6134 78.1844 13.6134C75.3782 13.6134 73.2241 11.4802 73.2241 8.62439C73.2241 6.26471 74.9496 3.61816 78.1844 3.61816C81.7875 3.61816 83.0948 6.62492 83.0776 9.08598H74.5641V9.07734ZM81.6863 7.91046C81.318 5.97138 79.8428 4.78723 78.1844 4.78723C76.3581 4.78723 74.8742 6.09648 74.5641 7.91046H81.6863Z" fill="#C7C7C7"/>
<path d="M85.4833 10.5807C85.3993 11.5557 86.0605 12.4465 87.2084 12.4465C88.3563 12.4465 88.8839 11.6398 88.8839 10.7921C88.8839 9.62522 87.9471 9.28873 87.0426 8.97813C86.0519 8.64165 84.5529 8.11967 84.5529 6.30569C84.5529 4.80231 85.5845 3.61816 87.301 3.61816C88.8689 3.61816 89.95 4.7527 89.9328 6.22157H88.6427C88.6578 5.36527 88.0634 4.78723 87.2687 4.78723C86.362 4.78723 85.8429 5.39978 85.8429 6.19785C85.8429 7.29788 86.8143 7.64299 87.7037 7.92771C88.8344 8.29654 90.1762 8.78402 90.1762 10.5807C90.1762 12.3796 89.0605 13.622 87.1093 13.622C85.1559 13.622 84.2018 12.1769 84.2018 10.5807H85.4919H85.4833Z" fill="#C7C7C7"/>
<path d="M91.6665 0.46875H92.9566V2.66881H91.6665V0.46875ZM91.6665 3.83572H92.9566V13.3866H91.6665V3.83572Z" fill="#C7C7C7"/>
<path d="M104.679 12.0255C104.679 15.688 102.383 17.1245 99.9129 17.1245C97.4405 17.1245 95.7305 15.7139 95.0865 13.613H96.3766C97.0205 15.1833 98.5389 15.949 99.8957 15.949C103.238 15.949 103.398 13.0846 103.398 12.0169V11.4971H103.365C102.736 12.7913 101.487 13.6044 99.7622 13.6044C96.9042 13.6044 94.8001 11.3375 94.8001 8.6327C94.8001 5.92791 96.887 3.60059 99.6933 3.60059C101.438 3.60059 102.745 4.3663 103.441 5.67555H103.473V3.82705H104.688V12.0169L104.679 12.0255ZM96.0751 8.56582C96.0751 10.6559 97.5913 12.4375 99.7686 12.4375C101.948 12.4375 103.464 10.7249 103.464 8.61545C103.464 6.39813 101.756 4.77826 99.7019 4.77826C97.6494 4.77826 96.0837 6.45634 96.0837 8.56582H96.0751Z" fill="#C7C7C7"/>
<path d="M106.867 3.83489H108.09V5.21317H108.123C108.853 4.13039 109.984 3.6084 111.241 3.6084C113.404 3.6084 115.404 4.95217 115.404 8.35365V13.3858H114.114V8.35365C114.114 7.65696 114.065 4.77746 111.082 4.77746C109.757 4.77746 108.157 5.45689 108.157 8.14443V13.3858H106.867V3.83489Z" fill="#C7C7C7"/>
</svg>
