<svg width="1686" height="231" viewBox="0 0 1686 231" fill="none" xmlns="http://www.w3.org/2000/svg">
<path d="M1080.75 4.50004C1080.75 5.9728 1081.94 7.1667 1083.41 7.1667C1084.89 7.1667 1086.08 5.9728 1086.08 4.50004C1086.08 3.02728 1084.89 1.83337 1083.41 1.83337C1081.94 1.83337 1080.75 3.02728 1080.75 4.50004ZM588.277 227.342C588.466 227.14 588.455 226.824 588.254 226.635L584.968 223.56C584.766 223.372 584.45 223.382 584.261 223.584C584.073 223.785 584.083 224.102 584.285 224.29L587.205 227.023L584.472 229.944C584.284 230.146 584.294 230.462 584.496 230.651C584.697 230.84 585.014 230.829 585.203 230.627L588.277 227.342ZM1083.41 4.50004V5.00004C1117.69 5.00004 1403.03 -1.49996 1568.21 3.43731C1609.51 4.67171 1643.27 6.62052 1663.71 9.56038C1668.82 10.2951 1673.08 11.0904 1676.42 11.9489C1679.77 12.8114 1682.14 13.7253 1683.49 14.6725C1684.16 15.1453 1684.53 15.5907 1684.67 15.9916C1684.81 16.3651 1684.78 16.7636 1684.5 17.2301C1684.21 17.7154 1683.65 18.2596 1682.77 18.8532C1681.9 19.443 1680.73 20.0611 1679.25 20.7058C1673.33 23.2899 1662.62 26.2078 1646.36 29.4878C1630.11 32.7654 1608.35 36.3979 1580.36 40.4202C1524.38 48.4646 1443.48 58.0654 1331.86 69.5026L1331.91 70L1331.96 70.4974C1443.59 59.0597 1524.5 49.4573 1580.5 41.41C1608.5 37.3864 1630.28 33.7508 1646.55 30.4681C1662.82 27.1878 1673.62 24.2532 1679.65 21.6224C1681.16 20.9634 1682.39 20.3176 1683.33 19.6824C1684.27 19.0508 1684.96 18.4088 1685.35 17.7453C1685.76 17.0632 1685.87 16.3507 1685.61 15.6497C1685.37 14.9762 1684.82 14.3837 1684.06 13.8542C1682.56 12.7967 1680.04 11.8476 1676.67 10.9804C1673.28 10.1093 1668.98 9.30797 1663.85 8.57056C1643.35 5.62175 1609.54 3.67212 1568.24 2.43776C1403.04 -2.49996 1117.64 4.00004 1083.41 4.00004V4.50004ZM1331.91 70L1331.86 69.5026C885.371 115.252 476.883 139.751 233.439 157.189C172.579 161.548 122.031 165.467 83.7832 169.165C45.5572 172.862 19.564 176.344 7.85528 179.841C4.93739 180.713 2.83499 181.605 1.65731 182.544C1.06716 183.014 0.644161 183.547 0.530112 184.156C0.411117 184.792 0.649834 185.383 1.10895 185.902C1.55999 186.411 2.25303 186.889 3.15006 187.348C4.05316 187.81 5.19426 188.267 6.5705 188.723C9.32299 189.634 13.056 190.552 17.7919 191.48C36.7306 195.192 71.9373 199.124 125.372 203.498L125.412 203L125.453 202.502C72.0127 198.126 36.8599 194.198 17.9842 190.499C13.2665 189.574 9.57992 188.666 6.88487 187.774C5.53734 187.327 4.44767 186.888 3.60526 186.457C2.75676 186.024 2.18953 185.614 1.85779 185.239C1.53414 184.873 1.46757 184.583 1.51303 184.34C1.56343 184.071 1.77462 183.729 2.28065 183.325C3.29533 182.517 5.23321 181.668 8.14148 180.799C19.7374 177.336 45.6231 173.86 83.8795 170.161C122.114 166.463 172.652 162.546 233.511 158.186C476.941 140.749 885.453 116.248 1331.96 70.4974L1331.91 70ZM125.412 203L125.372 203.498C296.378 217.499 412.011 223.499 484.895 226C521.337 227.25 547.092 227.625 563.738 227.688C572.061 227.719 578.107 227.672 582.073 227.617C584.056 227.59 585.519 227.56 586.487 227.538C586.971 227.527 587.331 227.517 587.57 227.51C587.69 227.507 587.779 227.504 587.839 227.503C587.869 227.502 587.891 227.501 587.906 227.5C587.913 227.5 587.919 227.5 587.923 227.5C587.925 227.5 587.926 227.5 587.927 227.5C587.928 227.5 587.929 227.5 587.912 227C587.896 226.5 587.895 226.5 587.894 226.5C587.893 226.5 587.892 226.5 587.89 226.5C587.887 226.501 587.881 226.501 587.874 226.501C587.859 226.501 587.838 226.502 587.808 226.503C587.749 226.505 587.661 226.507 587.542 226.511C587.304 226.518 586.946 226.527 586.464 226.538C585.499 226.561 584.039 226.59 582.06 226.617C578.1 226.672 572.06 226.719 563.742 226.688C547.107 226.625 521.362 226.25 484.929 225C412.064 222.501 296.447 216.501 125.453 202.502L125.412 203Z" fill="black"/>
</svg>
