<svg width="125" height="191" viewBox="0 0 125 191" fill="none" xmlns="http://www.w3.org/2000/svg">
<path fill-rule="evenodd" clip-rule="evenodd" d="M93.7503 116.032L92.24 121.627C83.3966 123.224 75.1815 125.569 67.6266 128.674C59.0642 132.18 51.3189 136.636 44.4132 142.052C42.5439 143.504 40.7307 145.056 38.9961 146.665C37.4179 148.105 35.8958 149.602 34.4295 151.165C33.7581 151.869 33.0976 152.583 32.4595 153.32H32.4483C23.3489 163.583 16.2194 176.147 11.1043 191H5.66467C12.3131 171.211 22.1625 155.297 35.1795 143.169C35.9404 142.466 36.7016 141.762 37.4852 141.081C39.2535 139.54 41.0892 138.043 42.9582 136.636C50.793 130.739 59.5792 125.993 69.3054 122.386C76.8828 119.583 85.0309 117.461 93.7503 116.032Z" fill="#D5D5D5"/>
<path fill-rule="evenodd" clip-rule="evenodd" d="M39.9585 125.379L36.6119 137.808L25.2517 95.4944L0.0462398 1.6193C-0.177571 0.80407 0.448982 0 1.28842 0H5.273C5.85496 0 6.36989 0.390868 6.51545 0.949249L28.5645 83.0648L39.9363 125.356L39.9585 125.379Z" fill="#D5D5D5"/>
<path fill-rule="evenodd" clip-rule="evenodd" d="M123.231 0C124.083 0 124.698 0.80407 124.474 1.6193L99.2678 95.4944L95.9222 107.913L94.4781 113.296L93.7502 116.031L92.2399 121.627L91.4891 124.396L73.9165 189.872C73.76 190.43 73.2563 190.832 72.6743 190.832H50.9273L50.8937 191L50.86 190.832L39.7684 149.49C41.5592 147.781 43.3724 146.195 45.1632 144.777L54.2402 178.57L66.7871 131.845L67.6377 128.673L69.3166 122.386L70.1336 119.371L84.5705 65.6098L87.9191 53.1914L101.932 0.960416C102.087 0.402035 102.59 0 103.174 0H123.22H123.231Z" fill="#D5D5D5"/>
<path fill-rule="evenodd" clip-rule="evenodd" d="M85.8941 45.7091L82.5573 58.1386L70.2794 12.4296L39.9476 125.379L36.6011 137.808L35.1684 143.158L32.4263 153.32L22.577 190.028C22.4202 190.586 21.9164 190.989 21.3345 190.989H1.28876C0.438105 190.989 -0.17751 190.185 0.0463011 189.369L25.2517 95.4944L28.5873 83.076L50.5915 1.11676C50.7483 0.558381 51.252 0.167514 51.834 0.167514H73.581L73.6147 0L73.6483 0.167514L85.871 45.7091H85.8941Z" fill="#D5D5D5"/>
<path fill-rule="evenodd" clip-rule="evenodd" d="M99.2679 95.4941L95.9223 107.912L84.562 65.6095L87.9077 53.1911L99.2679 95.4941Z" fill="#D5D5D5"/>
<path fill-rule="evenodd" clip-rule="evenodd" d="M123.231 190.989H119.247C118.663 190.989 118.151 190.598 118.004 190.039L99.3342 120.521L97.9591 115.406L101.293 102.976L104.429 114.647L105.804 119.795L124.486 189.369C124.707 190.184 124.083 190.989 123.243 190.989H123.231Z" fill="#D5D5D5"/>
</svg>
