<svg width="38" height="38" viewBox="0 0 38 38" fill="none" xmlns="http://www.w3.org/2000/svg">
<path d="M4.75 8.3125H33.25C33.8992 8.3125 34.4375 7.77417 34.4375 7.125C34.4375 6.47583 33.8992 5.9375 33.25 5.9375H4.75C4.10083 5.9375 3.5625 6.47583 3.5625 7.125C3.5625 7.77417 4.10083 8.3125 4.75 8.3125Z" fill="black"/>
<path d="M18.2558 16.2292H33.25C33.8992 16.2292 34.4375 15.6908 34.4375 15.0417C34.4375 14.3925 33.8992 13.8542 33.25 13.8542H18.2558C17.6067 13.8542 17.0683 14.3925 17.0683 15.0417C17.0683 15.6908 17.5908 16.2292 18.2558 16.2292Z" fill="black"/>
<path d="M4.75 24.1458H33.25C33.8992 24.1458 34.4375 23.6075 34.4375 22.9583C34.4375 22.3092 33.8992 21.7708 33.25 21.7708H4.75C4.10083 21.7708 3.5625 22.3092 3.5625 22.9583C3.5625 23.6075 4.10083 24.1458 4.75 24.1458Z" fill="black"/>
<path d="M18.2558 32.0625H33.25C33.8992 32.0625 34.4375 31.5242 34.4375 30.875C34.4375 30.2258 33.8992 29.6875 33.25 29.6875H18.2558C17.6067 29.6875 17.0683 30.2258 17.0683 30.875C17.0683 31.5242 17.5908 32.0625 18.2558 32.0625Z" fill="black"/>
</svg>
