<svg width="194" height="195" viewBox="0 0 194 195" fill="none" xmlns="http://www.w3.org/2000/svg">
<path d="M175.31 119.832L173.533 119.233L175.842 112.384L177.619 112.983L175.31 119.832ZM182.797 115.232L170.391 111.051L171.034 109.145L183.439 113.326L182.797 115.232ZM180.15 123.082L167.745 118.901L168.388 116.995L180.793 121.176L180.15 123.082Z" fill="#8F8F8F"/>
<path d="M164.765 127.206C165.187 126.492 165.704 125.924 166.317 125.5C166.935 125.08 167.602 124.85 168.318 124.811C169.039 124.775 169.766 124.974 170.5 125.407C171.146 125.789 171.594 126.225 171.845 126.717C172.101 127.211 172.218 127.739 172.196 128.3C172.175 128.862 172.068 129.432 171.878 130.012C171.689 130.6 171.474 131.176 171.233 131.74C170.916 132.477 170.655 133.071 170.447 133.523C170.242 133.982 170.138 134.343 170.134 134.605C170.128 134.872 170.265 135.088 170.544 135.253L170.602 135.288C171.326 135.715 172.006 135.85 172.641 135.69C173.274 135.536 173.825 135.06 174.296 134.263C174.785 133.436 174.987 132.681 174.902 131.997C174.818 131.314 174.626 130.755 174.328 130.322L175.886 129.025C176.397 129.723 176.699 130.429 176.792 131.144C176.887 131.866 176.838 132.563 176.646 133.235C176.455 133.915 176.193 134.538 175.857 135.106C175.644 135.468 175.354 135.857 174.988 136.275C174.625 136.7 174.181 137.055 173.657 137.339C173.13 137.628 172.513 137.762 171.806 137.741C171.099 137.719 170.299 137.444 169.403 136.915L161.977 132.528L163 130.797L164.527 131.698L164.579 131.61C164.403 131.348 164.257 130.998 164.14 130.559C164.023 130.121 164.001 129.616 164.074 129.046C164.147 128.475 164.378 127.862 164.765 127.206ZM166.164 128.39C165.76 129.074 165.553 129.731 165.545 130.36C165.534 130.993 165.67 131.556 165.954 132.047C166.235 132.543 166.611 132.929 167.08 133.207L168.665 134.143C168.621 134.018 168.635 133.809 168.709 133.516C168.785 133.231 168.892 132.911 169.029 132.556C169.167 132.209 169.307 131.873 169.447 131.546C169.589 131.228 169.703 130.968 169.788 130.768C169.995 130.283 170.148 129.806 170.248 129.337C170.349 128.875 170.34 128.448 170.223 128.055C170.107 127.67 169.829 127.347 169.389 127.087C168.787 126.732 168.201 126.686 167.629 126.949C167.06 127.22 166.572 127.7 166.164 128.39Z" fill="#8F8F8F"/>
<path d="M161.116 138.551L161.687 147.045L169.911 148.248L168.151 149.861L161.157 148.687L160.352 149.424L164.13 153.546L162.647 154.905L158.87 150.783L158.09 151.497L158.651 158.567L156.891 160.179L156.384 151.905L147.997 150.574L149.781 148.938L156.849 150.091L157.603 149.4L153.803 145.253L155.285 143.894L159.086 148.041L159.84 147.35L159.332 140.186L161.116 138.551Z" fill="#8F8F8F"/>
<path d="M140.37 160.811L141.084 172.114L139.389 172.992L138.389 158.766L139.841 158.013L150.799 167.078L149.135 167.941L140.37 160.811ZM149.71 167.643L143.685 156.02L145.471 155.095L151.495 166.717L149.71 167.643ZM134.545 160.758L140.569 172.381L138.784 173.306L132.759 161.684L134.545 160.758Z" fill="#8F8F8F"/>
<path d="M127.397 168.425L123.828 179.807L121.584 180.388L118.304 167.714L120.251 167.21L122.788 177.012L126.324 165.639L128.601 165.049L131.881 177.723L129.934 178.227L127.397 168.425Z" fill="#8F8F8F"/>
<path d="M114.48 180.992L114.596 182.863L103.98 183.52L103.864 181.648L108.151 181.383L107.459 170.189L109.467 170.065L110.159 181.259L114.48 180.992Z" fill="#8F8F8F"/>
<path d="M93.0442 170.56C94.2913 170.749 95.3255 171.187 96.1467 171.875C96.9613 172.567 97.5378 173.447 97.8761 174.515C98.2079 175.588 98.2735 176.788 98.0729 178.114C97.8723 179.439 97.4539 180.571 96.8177 181.51C96.1751 182.452 95.3755 183.142 94.4188 183.577C93.4557 184.018 92.3899 184.149 91.2214 183.973C90.5473 183.871 89.8985 183.658 89.2753 183.333C88.652 183.009 88.1089 182.553 87.6461 181.966C87.1825 181.385 86.853 180.657 86.6578 179.782C86.4625 178.908 86.4563 177.867 86.6391 176.659L86.7666 175.817L96.7439 177.326L96.4838 179.045L88.5289 177.842C88.4184 178.572 88.4658 179.246 88.6712 179.863C88.871 180.479 89.2127 180.994 89.6962 181.406C90.1742 181.817 90.7727 182.077 91.4917 182.186C92.2839 182.306 92.999 182.213 93.6371 181.907C94.2688 181.607 94.7863 181.168 95.1897 180.591C95.593 180.014 95.8487 179.369 95.9567 178.655L96.1301 177.509C96.278 176.532 96.2349 175.678 96.0007 174.947C95.76 174.221 95.3631 173.635 94.8099 173.189C94.2559 172.749 93.5772 172.468 92.7738 172.347C92.2514 172.268 91.7684 172.269 91.325 172.352C90.8751 172.439 90.4731 172.608 90.119 172.859C89.7642 173.115 89.4684 173.456 89.2319 173.88L87.3922 173.049C87.693 172.428 88.1196 171.907 88.672 171.485C89.2235 171.068 89.8711 170.775 90.615 170.606C91.3581 170.443 92.1678 170.428 93.0442 170.56Z" fill="#8F8F8F"/>
<path d="M61.9379 176.158L67.5711 164.341L69.3868 165.207L63.7535 177.024L61.9379 176.158ZM65.3303 170.864L66.1371 169.172C66.6208 169.213 67.0933 169.272 67.5547 169.347C68.0137 169.427 68.4822 169.541 68.9602 169.687C69.4357 169.838 69.9402 170.04 70.4736 170.295C71.8122 170.933 72.7144 171.807 73.18 172.916C73.6405 174.023 73.526 175.3 72.8365 176.746L71.0321 180.531L69.2165 179.666L71.0209 175.881C71.3094 175.275 71.4311 174.723 71.3862 174.223C71.3412 173.723 71.1665 173.284 70.862 172.906C70.5575 172.528 70.1591 172.222 69.6668 171.987C68.8974 171.621 68.1695 171.358 67.4829 171.201C66.7887 171.046 66.0712 170.934 65.3303 170.864Z" fill="#8F8F8F"/>
<path d="M56.4513 172.228L55.3318 173.733L46.7994 167.382L47.9189 165.878L51.3647 168.443L58.0614 159.445L59.6749 160.646L52.9782 169.643L56.4513 172.228Z" fill="#8F8F8F"/>
<path d="M46.9898 150.762C47.7593 151.659 48.221 152.63 48.3749 153.673C48.5251 154.712 48.3792 155.75 47.9372 156.788C47.4915 157.822 46.7554 158.779 45.7291 159.66C44.6941 160.548 43.6298 161.135 42.536 161.422C41.4385 161.705 40.3878 161.693 39.3837 161.386C38.376 161.076 37.4873 160.472 36.7178 159.575C35.9483 158.678 35.4884 157.71 35.3382 156.671C35.1843 155.628 35.3324 154.587 35.7824 153.55C36.2288 152.508 36.9694 151.543 38.0044 150.656C39.0307 149.775 40.0905 149.195 41.1836 148.916C42.2731 148.633 43.3217 148.647 44.3294 148.957C45.3335 149.264 46.2203 149.866 46.9898 150.762ZM45.6185 151.939C45.0339 151.258 44.3783 150.847 43.6517 150.707C42.925 150.566 42.1864 150.635 41.4359 150.912C40.6854 151.189 39.9781 151.612 39.314 152.182C38.6499 152.752 38.1217 153.388 37.7295 154.092C37.3372 154.795 37.153 155.518 37.1767 156.262C37.2005 157.005 37.5046 157.717 38.0891 158.398C38.6737 159.08 39.3314 159.489 40.0624 159.625C40.7934 159.762 41.5363 159.69 42.2911 159.409C43.0459 159.128 43.7554 158.703 44.4195 158.133C45.0835 157.563 45.6096 156.929 45.9975 156.229C46.3855 155.529 46.5654 154.81 46.5374 154.07C46.5093 153.331 46.203 152.62 45.6185 151.939Z" fill="#8F8F8F"/>
<path d="M14.5071 135.898L15.239 134.478C15.7498 134.694 16.1777 135.013 16.5226 135.435C16.8675 135.856 17.184 136.364 17.4722 136.958C17.7603 137.552 18.0772 138.213 18.4229 138.943C18.8085 139.767 19.3058 140.374 19.915 140.764C20.5242 141.154 21.2477 141.348 22.0855 141.345C22.9234 141.343 23.8781 141.164 24.9496 140.809L24.8832 140.652C23.957 140.563 23.1633 140.232 22.502 139.661C21.8407 139.089 21.3352 138.39 20.9855 137.563C20.5871 136.621 20.4483 135.68 20.5692 134.741C20.69 133.802 21.0892 132.929 21.7667 132.125C22.4442 131.32 23.4162 130.65 24.6826 130.114C25.9437 129.581 27.1274 129.345 28.2335 129.408C29.3374 129.465 30.3083 129.792 31.1463 130.388C31.9769 130.98 32.6201 131.815 33.0761 132.893C33.532 133.971 33.6777 135.023 33.5132 136.049C33.3435 137.077 32.8514 138.029 32.037 138.904C31.2174 139.781 30.0645 140.534 28.5783 141.162L27.291 141.707C24.6065 142.842 22.3783 143.248 20.6064 142.924C18.8324 142.595 17.5333 141.522 16.7093 139.705C16.4139 139.065 16.1641 138.489 15.9599 137.977C15.7557 137.465 15.5451 137.033 15.3282 136.68C15.1113 136.328 14.8376 136.067 14.5071 135.898ZM31.412 133.597C31.1043 132.87 30.6567 132.322 30.069 131.954C29.4792 131.58 28.7922 131.393 28.0081 131.391C27.2187 131.392 26.3714 131.584 25.4661 131.966C24.587 132.338 23.8995 132.799 23.4038 133.348C22.9058 133.891 22.6064 134.496 22.5055 135.162C22.4046 135.828 22.5102 136.53 22.8222 137.267C23.0502 137.806 23.3465 138.252 23.7112 138.603C24.0758 138.955 24.5003 139.207 24.9845 139.36C25.4687 139.513 26.0026 139.565 26.5863 139.516C27.1678 139.461 27.7904 139.299 28.4541 139.031C29.8043 138.46 30.751 137.686 31.2943 136.71C31.8376 135.734 31.8768 134.696 31.412 133.597Z" fill="#8F8F8F"/>
<path d="M18.2245 122.223L17.7347 118.505C17.5343 116.984 17.7669 115.77 18.4325 114.863C19.0981 113.956 20.0224 113.424 21.2054 113.268C21.9827 113.166 22.7134 113.253 23.3975 113.53C24.0759 113.807 24.6498 114.27 25.1193 114.919C25.5831 115.568 25.8818 116.4 26.0154 117.414L26.7323 122.856L13.7536 124.566L13.4909 122.572L24.6107 121.106L24.1565 117.659C24.0526 116.87 23.7588 116.25 23.2751 115.798C22.7915 115.346 22.2229 115.163 21.5695 115.249C20.8822 115.34 20.3551 115.667 19.9882 116.231C19.6212 116.795 19.4897 117.472 19.5936 118.26L20.0835 121.978L18.2245 122.223ZM25.1248 110.654L12.146 112.364L11.8833 110.37L24.862 108.66L25.1248 110.654Z" fill="#8F8F8F"/>
<path d="M22.989 96.9949L10.077 94.838L10.9588 89.5589C11.191 88.169 11.6892 87.1174 12.4536 86.4041C13.2179 85.6907 14.1157 85.4202 15.1468 85.5924C15.9314 85.7235 16.5006 86.0576 16.8545 86.5948C17.2027 87.1311 17.3916 87.7762 17.4212 88.53C17.568 88.0649 17.8134 87.6306 18.1573 87.2272C18.5021 86.8182 18.9347 86.5045 19.4551 86.2862C19.9698 86.0668 20.5663 86.0138 21.2444 86.1271C21.9057 86.2375 22.4688 86.5044 22.9338 86.9277C23.3988 87.3511 23.7302 87.9018 23.928 88.58C24.1258 89.2583 24.1517 90.0345 24.0056 90.9087L22.989 96.9949ZM21.4878 94.8086L22.1899 90.6054C22.3041 89.9217 22.231 89.3594 21.9705 88.9184C21.7101 88.4774 21.2996 88.2101 20.7392 88.1165C20.0723 88.0051 19.516 88.1109 19.0704 88.4339C18.6191 88.756 18.3363 89.2589 18.2221 89.9426L17.52 94.1458L21.4878 94.8086ZM15.8051 93.8593L16.3724 90.4632C16.4614 89.9308 16.4648 89.4619 16.3828 89.0565C16.2951 88.6501 16.1308 88.3231 15.8899 88.0755C15.6444 87.8213 15.331 87.6624 14.95 87.5988C14.4064 87.508 13.9425 87.6638 13.5585 88.0662C13.1688 88.4677 12.9075 89.0664 12.7746 89.8622L12.2073 93.2583L15.8051 93.8593Z" fill="#8F8F8F"/>
<path d="M26.702 76.7408C26.2539 77.8344 25.6004 78.6872 24.7417 79.2993C23.8851 79.9062 22.8941 80.2492 21.7686 80.3284C20.6454 80.4022 19.4581 80.1828 18.2068 79.67C16.945 79.1529 15.9373 78.4728 15.1837 77.6298C14.4322 76.7814 13.9643 75.8406 13.7799 74.8071C13.5977 73.7684 13.7306 72.7022 14.1788 71.6087C14.6269 70.5151 15.2793 69.6649 16.1359 69.058C16.9946 68.4459 17.9883 68.104 19.1168 68.0323C20.2475 67.9553 21.4437 68.1753 22.7055 68.6924C23.9568 69.2052 24.9556 69.8847 25.7018 70.7309C26.4502 71.5718 26.9155 72.5116 27.0977 73.5503C27.2821 74.5838 27.1502 75.6473 26.702 76.7408ZM25.0302 76.0557C25.3706 75.225 25.4378 74.4543 25.2317 73.7435C25.0256 73.0327 24.6283 72.4063 24.0399 71.8643C23.4515 71.3223 22.7525 70.8854 21.9428 70.5536C21.1332 70.2218 20.3259 70.0414 19.5211 70.0125C18.7163 69.9835 17.9885 70.1488 17.3376 70.5084C16.6867 70.868 16.1911 71.4631 15.8506 72.2938C15.5102 73.1245 15.4457 73.8963 15.657 74.6092C15.8684 75.3222 16.2709 75.9507 16.8646 76.4949C17.4582 77.0391 18.1599 77.4771 18.9695 77.8089C19.7792 78.1407 20.5838 78.32 21.3833 78.3467C22.1829 78.3735 22.9055 78.2061 23.5511 77.8443C24.1967 77.4826 24.6898 76.8864 25.0302 76.0557Z" fill="#8F8F8F"/>
<path d="M33.1308 61.5415C32.4382 62.5546 31.6025 63.2635 30.6239 63.6682C29.6452 64.0728 28.6014 64.1852 27.4925 64.0052C26.3835 63.8253 25.2896 63.3665 24.2108 62.629C23.1132 61.8787 22.2825 61.0149 21.7186 60.0375C21.1533 59.0523 20.8823 58.0342 20.9055 56.9833C20.9273 55.9245 21.2717 54.9073 21.9387 53.9317C22.4581 53.1718 23.067 52.5832 23.7653 52.1658C24.4635 51.7484 25.199 51.5182 25.9718 51.4752C26.7445 51.4322 27.5006 51.5946 28.2402 51.9626L27.1051 53.623C26.526 53.413 25.8974 53.3962 25.2192 53.5727C24.5396 53.7413 23.9497 54.1915 23.4495 54.9232C23.007 55.5705 22.7879 56.2535 22.7921 56.9722C22.7949 57.683 23.0081 58.3828 23.4319 59.0717C23.8542 59.7527 24.4735 60.3722 25.2896 60.9301C26.1245 61.5009 26.9414 61.8665 27.7401 62.0271C28.542 62.183 29.2793 62.1365 29.952 61.8874C30.6279 61.6337 31.1903 61.1785 31.6392 60.5218C31.9342 60.0903 32.1269 59.6473 32.2173 59.1929C32.3077 58.7385 32.2955 58.2931 32.1808 57.8568C32.0661 57.4205 31.847 57.0161 31.5236 56.6436L32.6587 54.9831C33.2325 55.513 33.6483 56.138 33.9063 56.8581C34.1628 57.5702 34.2343 58.3315 34.1208 59.1418C34.0059 59.9442 33.6759 60.7441 33.1308 61.5415Z" fill="#8F8F8F"/>
<path d="M37.625 52.7841L28.538 43.3608L35.9491 36.2142L45.0361 45.6375L43.5882 47.0337L35.8027 38.9601L31.2874 43.3143L39.0729 51.3879L37.625 52.7841Z" fill="#8F8F8F"/>
<path d="M50.6704 45.3179L41.3447 29.9221L43.0067 28.9154L44.0841 30.694L44.2883 30.5704C44.2969 30.2995 44.3217 29.9457 44.3627 29.5089C44.4057 29.0644 44.5664 28.595 44.845 28.1008C45.1255 27.5988 45.6302 27.127 46.3592 26.6854C47.302 26.1143 48.2758 25.8467 49.2805 25.8824C50.2853 25.9181 51.2514 26.2463 52.1787 26.8671C53.1061 27.4878 53.926 28.3862 54.6383 29.5622C55.3566 30.748 55.7775 31.898 55.9011 33.0123C56.0217 34.1216 55.8691 35.1308 55.4431 36.0398C55.0143 36.9439 54.3333 37.6786 53.4003 38.2438C52.681 38.6794 52.033 38.9092 51.4562 38.9331C50.8765 38.9521 50.3773 38.8791 49.9586 38.7143C49.5369 38.5445 49.2011 38.3959 48.9511 38.2683L48.8053 38.3566L52.3907 44.2759L50.6704 45.3179ZM46.4271 34.4962C46.9393 35.3418 47.515 36.0127 48.1544 36.5089C48.7908 37.0003 49.4576 37.284 50.1546 37.36C50.8487 37.4311 51.5408 37.2577 52.2309 36.8397C52.9501 36.404 53.4355 35.8509 53.687 35.1804C53.9404 34.5021 53.9929 33.7662 53.8444 32.9727C53.6978 32.1713 53.3831 31.3722 52.9003 30.5751C52.4234 29.7879 51.8721 29.1519 51.2465 28.6673C50.6227 28.1749 49.956 27.8913 49.2463 27.8163C48.5385 27.7335 47.8201 27.9129 47.0912 28.3545C46.3913 28.7784 45.9108 29.3119 45.6494 29.9552C45.3851 30.5936 45.3228 31.3022 45.4625 32.0812C45.5992 32.8553 45.9207 33.6603 46.4271 34.4962Z" fill="#8F8F8F"/>
<path d="M66.8109 30.1779C65.6895 30.5512 64.6169 30.6118 63.5928 30.3599C62.5742 30.1062 61.6679 29.5784 60.8741 28.7768C60.0856 27.9733 59.4778 26.9301 59.0507 25.647C58.62 24.3532 58.4785 23.1457 58.6263 22.0246C58.7794 20.9017 59.1877 19.9334 59.851 19.1198C60.5197 18.3043 61.4147 17.7099 62.536 17.3366C63.6574 16.9634 64.7274 16.9036 65.746 17.1573C66.7701 17.4093 67.6772 17.9397 68.4675 18.7485C69.2631 19.5556 69.8763 20.606 70.307 21.8998C70.7341 23.1829 70.8702 24.3832 70.7152 25.5007C70.5657 26.6164 70.1565 27.582 69.4878 28.3975C68.8245 29.2111 67.9322 29.8046 66.8109 30.1779ZM66.2402 28.4636C67.0919 28.18 67.7201 27.7284 68.1246 27.1087C68.5291 26.4889 68.745 25.7793 68.7723 24.9798C68.7995 24.1802 68.675 23.3653 68.3986 22.5351C68.1222 21.7049 67.7326 20.9753 67.2298 20.3462C66.7269 19.7172 66.127 19.2732 65.4299 19.0141C64.7329 18.7551 63.9585 18.7674 63.1067 19.051C62.255 19.3345 61.6277 19.7888 61.225 20.414C60.8223 21.0391 60.6082 21.7541 60.5827 22.559C60.5573 23.364 60.6827 24.1815 60.9591 25.0117C61.2355 25.8419 61.6242 26.5689 62.1252 27.1925C62.6263 27.8162 63.2244 28.2549 63.9196 28.5085C64.6149 28.7621 65.3884 28.7471 66.2402 28.4636Z" fill="#8F8F8F"/>
<path d="M78.4172 22.2238L83.6791 11.5184L85.9856 11.2864L87.2957 24.3116L85.2945 24.5129L84.2812 14.4387L79.0532 25.1407L76.7128 25.3761L75.4026 12.3509L77.4039 12.1496L78.4172 22.2238Z" fill="#8F8F8F"/>
<path d="M92.7158 19.6775L94.8565 19.8513C94.854 20.4439 95.0838 20.9129 95.5461 21.2583C96.0139 21.6041 96.6415 21.8089 97.4286 21.8728C98.2328 21.9381 98.9342 21.8297 99.5329 21.5477C100.132 21.26 100.462 20.7452 100.522 20.0033C100.557 19.5673 100.48 19.1791 100.291 18.8388C100.103 18.4929 99.8206 18.2135 99.4446 18.0005C99.0685 17.7876 98.6143 17.6595 98.082 17.6163L95.8394 17.4342L95.9856 15.6333L98.2282 15.8154C99.0267 15.8802 99.6304 15.7468 100.039 15.4152C100.454 15.084 100.683 14.6466 100.727 14.1029C100.775 13.5196 100.606 13.0356 100.221 12.6509C99.8364 12.2606 99.2648 12.0346 98.5059 11.973C97.7414 11.9109 97.0902 12.0319 96.5525 12.336C96.0152 12.6344 95.7106 13.0515 95.6386 13.5872L93.5319 13.4162C93.6116 12.7158 93.8771 12.1131 94.3285 11.6082C94.7804 11.0977 95.3699 10.718 96.0969 10.4692C96.8245 10.2147 97.6413 10.1243 98.5474 10.1978C99.4648 10.2723 100.247 10.4983 100.895 10.8758C101.549 11.2481 102.038 11.7238 102.361 12.303C102.691 12.8771 102.828 13.5095 102.771 14.2004C102.712 14.9366 102.457 15.5145 102.007 15.934C101.556 16.3535 101.012 16.6342 100.373 16.7762L100.362 16.9121C100.852 16.9861 101.267 17.1794 101.606 17.492C101.952 17.7993 102.208 18.1878 102.375 18.6574C102.543 19.1214 102.605 19.6252 102.561 20.1688C102.496 20.9617 102.228 21.6354 101.755 22.1898C101.283 22.7387 100.663 23.1444 99.895 23.407C99.1274 23.6639 98.2678 23.7537 97.3164 23.6765C96.3933 23.6016 95.5787 23.3844 94.8725 23.0249C94.1668 22.6598 93.6205 22.1908 93.2338 21.6178C92.8532 21.0397 92.6805 20.3929 92.7158 19.6775Z" fill="#8F8F8F"/>
<path d="M106.474 23.1561L110.184 10.602L115.317 12.119C116.669 12.5184 117.652 13.1408 118.267 13.9862C118.882 14.8316 119.042 15.7555 118.745 16.7581C118.52 17.521 118.119 18.0453 117.543 18.3312C116.968 18.6117 116.305 18.7208 115.553 18.6585C115.997 18.8608 116.398 19.1571 116.757 19.5475C117.121 19.9395 117.379 20.407 117.533 20.9501C117.688 21.4877 117.668 22.0861 117.473 22.7454C117.283 23.3884 116.95 23.9149 116.473 24.3251C115.997 24.7352 115.41 24.9972 114.712 25.111C114.015 25.2249 113.241 25.1562 112.391 24.905L106.474 23.1561ZM108.827 21.9318L112.913 23.1396C113.578 23.3361 114.145 23.3318 114.614 23.1269C115.084 22.922 115.399 22.5471 115.56 22.0022C115.752 21.3538 115.714 20.7888 115.448 20.3072C115.183 19.8201 114.718 19.4783 114.053 19.2818L109.967 18.074L108.827 21.9318ZM110.46 16.4067L113.762 17.3826C114.279 17.5356 114.744 17.596 115.157 17.5638C115.571 17.5262 115.915 17.4029 116.19 17.1939C116.472 16.981 116.668 16.6893 116.778 16.3188C116.934 15.7903 116.836 15.311 116.483 14.8808C116.132 14.4453 115.569 14.1131 114.795 13.8844L111.493 12.9085L110.46 16.4067Z" fill="#8F8F8F"/>
<path d="M126.296 29.3432C125.265 28.7647 124.499 28.0119 123.996 27.0848C123.499 26.1604 123.279 25.1349 123.338 24.0082C123.402 22.8843 123.765 21.7328 124.427 20.5536C125.094 19.3645 125.893 18.4474 126.822 17.8025C127.755 17.1603 128.746 16.8109 129.795 16.7543C130.848 16.7004 131.89 16.9627 132.92 17.5411C133.951 18.1196 134.715 18.871 135.213 19.7953C135.715 20.7225 135.933 21.7505 135.866 22.8793C135.804 24.0109 135.44 25.1713 134.772 26.3604C134.111 27.5396 133.314 28.4478 132.383 29.085C131.457 29.725 130.467 30.072 129.414 30.1258C128.366 30.1825 127.326 29.9216 126.296 29.3432ZM127.18 27.7676C127.963 28.207 128.72 28.3678 129.45 28.2502C130.181 28.1325 130.851 27.8148 131.461 27.2971C132.071 26.7793 132.59 26.1389 133.018 25.3759C133.447 24.6129 133.724 23.8338 133.852 23.0385C133.979 22.2433 133.904 21.5007 133.626 20.8107C133.349 20.1208 132.819 19.5561 132.036 19.1167C131.253 18.6773 130.495 18.5189 129.762 18.6415C129.028 18.7641 128.355 19.0868 127.742 19.6095C127.13 20.1322 126.609 20.7751 126.181 21.5381C125.753 22.3011 125.476 23.0778 125.352 23.868C125.228 24.6583 125.306 25.396 125.586 26.081C125.866 26.766 126.397 27.3282 127.18 27.7676Z" fill="#8F8F8F"/>
<path d="M140.561 37.5358C139.638 36.7266 139.035 35.8119 138.751 34.7918C138.466 33.7716 138.48 32.7219 138.792 31.6425C139.104 30.5632 139.691 29.5323 140.552 28.5498C141.429 27.5502 142.386 26.8292 143.424 26.3868C144.47 25.9438 145.513 25.797 146.554 25.9462C147.602 26.0949 148.571 26.5589 149.459 27.3382C150.151 27.9451 150.663 28.6202 150.993 29.3636C151.324 30.1069 151.464 30.8647 151.414 31.637C151.364 32.4093 151.112 33.1405 150.658 33.8305L149.146 32.5043C149.424 31.9546 149.516 31.3326 149.422 30.6381C149.336 29.9432 148.96 29.3035 148.294 28.7191C147.704 28.2021 147.052 27.9025 146.338 27.8205C145.633 27.7379 144.912 27.8656 144.177 28.2036C143.451 28.5411 142.761 29.0815 142.109 29.8248C141.442 30.5851 140.981 31.3522 140.726 32.1258C140.475 32.9032 140.433 33.6408 140.599 34.3385C140.77 35.04 141.154 35.6529 141.752 36.1774C142.145 36.5221 142.562 36.7666 143.002 36.9109C143.443 37.0552 143.886 37.0966 144.333 37.0351C144.78 36.9736 145.208 36.8046 145.617 36.5282L147.129 37.8545C146.534 38.3605 145.863 38.6983 145.118 38.868C144.38 39.0371 143.615 39.0167 142.825 38.8068C142.042 38.5964 141.287 38.1727 140.561 37.5358Z" fill="#8F8F8F"/>
<path d="M157.261 35.962L158.744 34.8152L165.25 43.2304L163.766 44.3771L161.139 40.9787L152.266 47.8384L151.035 46.2471L159.909 39.3874L157.261 35.962Z" fill="#8F8F8F"/>
<path d="M162.048 54.6651L173.892 56.0893L174.874 58.1892L163.015 63.7344L162.163 61.9124L171.335 57.6235L159.506 56.2303L158.51 54.0995L170.368 48.5542L171.22 50.3762L162.048 54.6651Z" fill="#8F8F8F"/>
</svg>
